<?xml version="1.0" standalone="no"?>
<!DOCTYPE svg PUBLIC "-//W3C//DTD SVG 20010904//EN"
 "http://www.w3.org/TR/2001/REC-SVG-20010904/DTD/svg10.dtd">
<svg version="1.0" xmlns="http://www.w3.org/2000/svg"
 width="300.000000pt" height="300.000000pt" viewBox="0 0 300.000000 300.000000"
 preserveAspectRatio="xMidYMid meet">
<metadata>
Created by potrace 1.11, written by Peter Selinger 2001-2013
</metadata>
<g transform="translate(0.000000,300.000000) scale(0.100000,-0.100000)"
fill="#000000" stroke="none">
<path d="M1169 2946 c-2 -2 -85 -25 -184 -51 -99 -26 -199 -52 -222 -59 -36
-9 -74 -43 -243 -210 l-201 -199 26 -53 c34 -70 153 -187 274 -272 l93 -65 18
23 c9 12 20 19 22 14 10 -16 40 -182 54 -299 10 -86 18 -279 17 -422 -2 -177
-13 -233 -49 -247 -7 -3 -46 17 -86 44 -40 28 -78 50 -85 50 -18 0 -30 -30
-27 -65 7 -75 6 -123 -1 -134 -9 -16 -68 -9 -150 16 -124 39 -140 18 -68 -87
79 -116 93 -143 81 -157 -6 -7 -44 -29 -84 -49 -71 -35 -91 -55 -78 -76 4 -6
40 -26 81 -45 41 -19 76 -40 79 -48 7 -16 -15 -60 -50 -100 -14 -16 -26 -35
-26 -42 0 -6 -5 -13 -11 -15 -9 -3 -9 -10 0 -26 12 -22 16 -23 100 -16 119 8
122 4 93 -119 -12 -51 -22 -104 -22 -119 0 -44 35 -35 124 32 120 90 124 90
174 -13 53 -112 76 -113 126 -4 19 41 39 78 45 81 13 8 59 -18 149 -86 70 -53
102 -61 102 -25 0 12 -11 60 -25 106 -14 46 -23 87 -20 90 2 4 30 4 62 0 62
-7 488 -4 538 4 17 3 64 8 105 12 41 4 78 9 81 11 4 2 30 6 59 9 29 3 55 7 59
9 4 3 27 7 51 11 25 3 86 16 135 27 50 12 96 21 103 21 7 0 10 7 8 16 -5 16
-38 192 -50 261 -3 19 -8 46 -11 60 -5 26 -6 33 -25 155 -6 39 -12 81 -15 95
-2 14 -7 50 -10 80 -4 30 -9 63 -11 73 -2 10 -6 48 -9 85 -4 37 -8 78 -10 92
-8 50 -18 257 -18 361 1 162 18 290 49 366 16 38 14 36 49 23 24 -9 36 -4 108
47 101 73 235 203 275 268 l31 50 -205 206 c-113 113 -211 206 -217 206 -7 0
-23 3 -37 7 -14 3 -65 15 -115 27 -49 11 -99 23 -110 25 -11 2 -53 12 -93 22
l-72 19 -32 -56 c-40 -70 -148 -180 -208 -212 -68 -35 -168 -34 -235 4 -27 15
-61 38 -75 50 -34 30 -110 123 -143 175 -28 43 -30 45 -38 38z"/>
</g>
</svg>
